<?xml version="1.0" encoding="UTF-8" standalone="no"?>
<!-- Created with Inkscape (http://www.inkscape.org/) -->

<svg
   version="1.1"
   id="svg2"
   width="1365.3333"
   height="1357.04"
   viewBox="0 0 1365.3333 1357.04"
   sodipodi:docname="f-Logo_White.eps"
   xmlns:inkscape="http://www.inkscape.org/namespaces/inkscape"
   xmlns:sodipodi="http://sodipodi.sourceforge.net/DTD/sodipodi-0.dtd"
   xmlns="http://www.w3.org/2000/svg"
   xmlns:svg="http://www.w3.org/2000/svg">
  <defs
     id="defs6" />
  <sodipodi:namedview
     id="namedview4"
     pagecolor="#ffffff"
     bordercolor="#000000"
     borderopacity="0.25"
     inkscape:showpageshadow="2"
     inkscape:pageopacity="0.0"
     inkscape:pagecheckerboard="0"
     inkscape:deskcolor="#d1d1d1" />
  <g
     id="g8"
     inkscape:groupmode="layer"
     inkscape:label="ink_ext_XXXXXX"
     transform="matrix(1.3333333,0,0,-1.3333333,0,1357.04)">
    <g
       id="g10"
       transform="scale(0.1)">
      <path
         d="m 10240,5057.8 c 0,2827.7 -2292.3,5120 -5120,5120 C 2292.3,10177.8 0,7885.5 0,5057.8 0,2502.26 1872.31,384.102 4320,0 V 3577.8 H 3020 v 1480 h 1300 v 1128 c 0,1283.2 764.38,1992 1933.9,1992 560.17,0 1146.1,-100 1146.1,-100 v -1260 H 6754.38 C 6118.35,6817.8 5920,6423.13 5920,6018.23 V 5057.8 h 1420 l -227,-1480 H 5920 V 0 c 2447.69,384.102 4320,2502.26 4320,5057.8"
         style="fill:#ffffff;fill-opacity:1;fill-rule:nonzero;stroke:none"
         id="path12" />
    </g>
  </g>
</svg>
