<svg id="visual" viewBox="0 0 900 600" width="900" height="600" xmlns="http://www.w3.org/2000/svg" xmlns:xlink="http://www.w3.org/1999/xlink" version="1.1"><g stroke-width="1" stroke-linejoin="bevel"><path d="M473 263L548.5 240L434 214Z" fill="#b69cd1" stroke="#b69cd1"></path><path d="M473 263L587.5 265L548.5 240Z" fill="#ba9dcd" stroke="#ba9dcd"></path><path d="M645 202L576.5 107L548.5 240Z" fill="#b09bd7" stroke="#b09bd7"></path><path d="M548.5 240L576.5 107L434 214Z" fill="#ad9ada" stroke="#ad9ada"></path><path d="M587.5 265L645 202L548.5 240Z" fill="#b09bd7" stroke="#b09bd7"></path><path d="M587.5 265L635 264L645 202Z" fill="#a99adc" stroke="#a99adc"></path><path d="M576.5 107L427 62L434 214Z" fill="#a99adc" stroke="#a99adc"></path><path d="M434 214L428 359L473 263Z" fill="#b69cd1" stroke="#b69cd1"></path><path d="M473 263L531.5 431L587.5 265Z" fill="#ad9ada" stroke="#ad9ada"></path><path d="M587.5 265L692 432L635 264Z" fill="#b69cd1" stroke="#b69cd1"></path><path d="M314.5 262L428 359L434 214Z" fill="#b09bd7" stroke="#b09bd7"></path><path d="M427 62L316.5 194L434 214Z" fill="#ad9ada" stroke="#ad9ada"></path><path d="M316.5 194L314.5 262L434 214Z" fill="#a59adf" stroke="#a59adf"></path><path d="M777.5 140L674 100L645 202Z" fill="#a09ae2" stroke="#a09ae2"></path><path d="M645 202L674 100L576.5 107Z" fill="#ba9dcd" stroke="#ba9dcd"></path><path d="M552.5 0L447 0L427 62Z" fill="#b09bd7" stroke="#b09bd7"></path><path d="M552.5 0L427 62L576.5 107Z" fill="#ba9dcd" stroke="#ba9dcd"></path><path d="M427 62L300.5 86L316.5 194Z" fill="#bc9eca" stroke="#bc9eca"></path><path d="M674 100L552.5 0L576.5 107Z" fill="#b69cd1" stroke="#b69cd1"></path><path d="M369.5 0L300.5 86L427 62Z" fill="#bc9eca" stroke="#bc9eca"></path><path d="M218 184L235 293L314.5 262Z" fill="#b39bd4" stroke="#b39bd4"></path><path d="M428 359L531.5 431L473 263Z" fill="#ba9dcd" stroke="#ba9dcd"></path><path d="M447 0L369.5 0L427 62Z" fill="#b69cd1" stroke="#b69cd1"></path><path d="M314.5 262L338.5 387L428 359Z" fill="#be9fc8" stroke="#be9fc8"></path><path d="M481 537L529.5 483L531.5 431Z" fill="#b69cd1" stroke="#b69cd1"></path><path d="M240 0L248 106L300.5 86Z" fill="#a99adc" stroke="#a99adc"></path><path d="M300.5 86L248 106L316.5 194Z" fill="#b89ccf" stroke="#b89ccf"></path><path d="M314.5 262L235 293L338.5 387Z" fill="#b89ccf" stroke="#b89ccf"></path><path d="M218 184L314.5 262L316.5 194Z" fill="#ba9dcd" stroke="#ba9dcd"></path><path d="M248 106L218 184L316.5 194Z" fill="#ad9ada" stroke="#ad9ada"></path><path d="M481 537L531.5 431L428 359Z" fill="#ba9dcd" stroke="#ba9dcd"></path><path d="M692 432L769.5 307L635 264Z" fill="#ba9dcd" stroke="#ba9dcd"></path><path d="M674 100L698 0L552.5 0Z" fill="#b89ccf" stroke="#b89ccf"></path><path d="M769.5 0L698 0L674 100Z" fill="#a59adf" stroke="#a59adf"></path><path d="M769.5 307L645 202L635 264Z" fill="#ad9ada" stroke="#ad9ada"></path><path d="M802.5 203L777.5 140L645 202Z" fill="#bc9eca" stroke="#bc9eca"></path><path d="M692 432L587.5 265L531.5 431Z" fill="#a09ae2" stroke="#a09ae2"></path><path d="M529.5 483L692 432L531.5 431Z" fill="#a59adf" stroke="#a59adf"></path><path d="M769.5 307L802.5 203L645 202Z" fill="#b69cd1" stroke="#b69cd1"></path><path d="M227 468L349.5 479L338.5 387Z" fill="#b39bd4" stroke="#b39bd4"></path><path d="M338.5 387L349.5 479L428 359Z" fill="#ad9ada" stroke="#ad9ada"></path><path d="M369.5 0L240 0L300.5 86Z" fill="#a09ae2" stroke="#a09ae2"></path><path d="M72.5 115L149.5 226L218 184Z" fill="#ad9ada" stroke="#ad9ada"></path><path d="M349.5 479L481 537L428 359Z" fill="#b39bd4" stroke="#b39bd4"></path><path d="M670 527L747.5 466L692 432Z" fill="#bc9eca" stroke="#bc9eca"></path><path d="M900 66L769.5 0L777.5 140Z" fill="#b39bd4" stroke="#b39bd4"></path><path d="M777.5 140L769.5 0L674 100Z" fill="#ba9dcd" stroke="#ba9dcd"></path><path d="M121.5 272L191 361L235 293Z" fill="#ba9dcd" stroke="#ba9dcd"></path><path d="M235 293L191 361L338.5 387Z" fill="#b69cd1" stroke="#b69cd1"></path><path d="M149.5 226L235 293L218 184Z" fill="#b09bd7" stroke="#b09bd7"></path><path d="M72.5 115L218 184L248 106Z" fill="#b39bd4" stroke="#b39bd4"></path><path d="M670 527L692 432L529.5 483Z" fill="#b69cd1" stroke="#b69cd1"></path><path d="M692 432L820.5 388L769.5 307Z" fill="#a99adc" stroke="#a99adc"></path><path d="M900 302L900 231L802.5 203Z" fill="#b39bd4" stroke="#b39bd4"></path><path d="M566.5 600L670 527L529.5 483Z" fill="#b39bd4" stroke="#b39bd4"></path><path d="M747.5 466L820.5 388L692 432Z" fill="#ad9ada" stroke="#ad9ada"></path><path d="M191 361L227 468L338.5 387Z" fill="#b89ccf" stroke="#b89ccf"></path><path d="M349.5 479L459 600L481 537Z" fill="#bc9eca" stroke="#bc9eca"></path><path d="M149.5 226L121.5 272L235 293Z" fill="#b39bd4" stroke="#b39bd4"></path><path d="M191 361L148.5 498L227 468Z" fill="#b09bd7" stroke="#b09bd7"></path><path d="M0 173L121.5 272L149.5 226Z" fill="#a59adf" stroke="#a59adf"></path><path d="M324.5 600L459 600L349.5 479Z" fill="#a99adc" stroke="#a99adc"></path><path d="M481 537L566.5 600L529.5 483Z" fill="#be9fc8" stroke="#be9fc8"></path><path d="M459 600L566.5 600L481 537Z" fill="#a59adf" stroke="#a59adf"></path><path d="M900 302L802.5 203L769.5 307Z" fill="#a09ae2" stroke="#a09ae2"></path><path d="M802.5 203L900 66L777.5 140Z" fill="#b09bd7" stroke="#b09bd7"></path><path d="M820.5 388L900 302L769.5 307Z" fill="#b69cd1" stroke="#b69cd1"></path><path d="M566.5 600L643 600L670 527Z" fill="#b69cd1" stroke="#b69cd1"></path><path d="M670 527L753.5 600L747.5 466Z" fill="#b89ccf" stroke="#b89ccf"></path><path d="M900 517L900 399L820.5 388Z" fill="#bc9eca" stroke="#bc9eca"></path><path d="M820.5 388L900 399L900 302Z" fill="#ad9ada" stroke="#ad9ada"></path><path d="M900 231L900 66L802.5 203Z" fill="#be9fc8" stroke="#be9fc8"></path><path d="M227 468L324.5 600L349.5 479Z" fill="#a59adf" stroke="#a59adf"></path><path d="M90.5 0L72.5 115L248 106Z" fill="#b89ccf" stroke="#b89ccf"></path><path d="M900 517L820.5 388L747.5 466Z" fill="#be9fc8" stroke="#be9fc8"></path><path d="M900 66L900 0L769.5 0Z" fill="#b89ccf" stroke="#b89ccf"></path><path d="M240 0L90.5 0L248 106Z" fill="#b69cd1" stroke="#b69cd1"></path><path d="M82.5 394L148.5 498L191 361Z" fill="#a59adf" stroke="#a59adf"></path><path d="M227 468L233 600L324.5 600Z" fill="#b89ccf" stroke="#b89ccf"></path><path d="M82.5 394L191 361L121.5 272Z" fill="#a09ae2" stroke="#a09ae2"></path><path d="M0 293L82.5 394L121.5 272Z" fill="#b39bd4" stroke="#b39bd4"></path><path d="M643 600L753.5 600L670 527Z" fill="#a59adf" stroke="#a59adf"></path><path d="M148.5 498L233 600L227 468Z" fill="#b89ccf" stroke="#b89ccf"></path><path d="M0 124L0 173L72.5 115Z" fill="#bc9eca" stroke="#bc9eca"></path><path d="M72.5 115L0 173L149.5 226Z" fill="#a59adf" stroke="#a59adf"></path><path d="M0 0L0 124L72.5 115Z" fill="#a59adf" stroke="#a59adf"></path><path d="M0 600L142.5 600L148.5 498Z" fill="#bc9eca" stroke="#bc9eca"></path><path d="M0 173L0 293L121.5 272Z" fill="#bc9eca" stroke="#bc9eca"></path><path d="M753.5 600L900 517L747.5 466Z" fill="#ad9ada" stroke="#ad9ada"></path><path d="M148.5 498L142.5 600L233 600Z" fill="#bc9eca" stroke="#bc9eca"></path><path d="M0 466L148.5 498L82.5 394Z" fill="#bc9eca" stroke="#bc9eca"></path><path d="M90.5 0L0 0L72.5 115Z" fill="#ad9ada" stroke="#ad9ada"></path><path d="M0 293L0 424L82.5 394Z" fill="#a99adc" stroke="#a99adc"></path><path d="M0 424L0 466L82.5 394Z" fill="#bc9eca" stroke="#bc9eca"></path><path d="M753.5 600L900 600L900 517Z" fill="#ba9dcd" stroke="#ba9dcd"></path><path d="M0 466L0 600L148.5 498Z" fill="#ba9dcd" stroke="#ba9dcd"></path></g></svg>